# xmcd
#
# Track frame offsets:
#	150
#	14079
#	31384
#	42699
#	58994
#	77800
#	90624
#	105276
#	125796
#	141788
#	153543
#
# Disc length: 2147 seconds
#
# Revision: 1
# Processed by: cddbd v1.5.2PL0 Copyright (c) Steve Scherf et al.
# Submitted via: audiograbber 1.83.01
#
DISCID=9a08610b
DTITLE=Flophouse String Band - Countrymusic Patrol
DYEAR=2007
DGENRE=Country
TTITLE0=Please Stop
TTITLE1=Countrymusic Patrol
TTITLE2=Truck and CB
TTITLE3=Give Me Some Whisky
TTITLE4=Me, Myself And I
TTITLE5=Carolyn
TTITLE6=To The Bone
TTITLE7=Daddy Wrote The Song
TTITLE8=John Wayne
TTITLE9=Hillbilly Cowboy
TTITLE10=Time For The Roses
EXTD=
EXTT0=
EXTT1=
EXTT2=
EXTT3=
EXTT4=
EXTT5=
EXTT6=
EXTT7=
EXTT8=
EXTT9=
EXTT10=
PLAYORDER=
